<svg xmlns="http://www.w3.org/2000/svg" viewBox="0 0 1024 1024">
<style>path{fill:#17191C;stroke:#17191C}@media (prefers-color-scheme:dark){path{fill:#FFFFFF;stroke:#FFFFFF}}</style>
<g transform="translate(-437.9,-244.8) scale(3.9008)" stroke-width="0.75"><path transform="translate(243.20,193.90) scale(1.21) translate(-243.20,-193.90)" d="M212.9,254.4c-1.6-1.1-2.2-1.4-3.6-2.7l-0.5,0.5c2.3,2.7,4.2,3.6,4.2,7.1v34.1H154V136.2  c0-23.1,18.7-41.7,41.7-41.7s41.7,18.7,41.7,41.7c0,0,0,54,0,54c0,1.3,0.1,2.6,0.4,3.9c0.3,1.2,0.7,2.4,1.2,3.6  c0.5,1.1,1.2,2.2,1.9,3.2c0.7,1,1.6,1.9,2.5,2.7c0.9,0.8,1.9,1.6,3,2.2c0.8,0.5,2.6,1.3,2.6,1.3s0-9.7,0-12.1c0-2.2,0-4.4,0-6.6  c0-2.8,0-5.6,0-8.4c0-3.2,0-6.3,0-9.5c0-3.2,0-6.4,0-9.7c0-3,0-6,0-9.1c0-2.6,0-5.1,0-7.7c0-1.8,0-3.6,0-5.4c0-0.8,0-1.6,0-2.4  c0,0,0,0,0-0.1c0-23.1,18.7-41.7,41.7-41.7c23.1,0,41.7,18.7,41.7,41.7v54c0,22.3-9.4,42.3-24.6,56.4v46.8h-58.9c0,0,0-26.4,0-26.4  C235.8,265.9,223.5,261.4,212.9,254.4z M254,136.2h73.7c0-20.3-16.5-36.8-36.8-36.8S254,115.9,254,136.2 M303.1,141.1h-24.6  c0,6.8,5.5,12.3,12.3,12.3C297.6,153.4,303.1,147.9,303.1,141.1z M308,185.3h19.6v-44.2c0,0-19.6,0-19.6,0V185.3 M254,208.2  c0.5,0,1,0.1,1.6,0.1c10,0,18.1-8.1,18.1-18.1v-49.1c0,0-19.6,0-19.6,0L254,208.2L254,208.2z M158.9,141.1v147.3H208v-37.6h0  c-17.9-14.1-29.5-36-29.5-60.6v-4.9v-44.2H158.9z M183.5,141.1c0,6.8,5.5,12.3,12.3,12.3s12.3-5.5,12.3-12.3H183.5 M303.1,244.4  v-54.2c0,0-24.6,0-24.6,0c0,12.7-10.3,23-23,23c-0.5,0-1.1,0-1.6-0.1h0v49.2h0c0.5,0,1.1,0,1.6,0  C273.8,262.3,290.4,255.6,303.1,244.4L303.1,244.4z M212.9,190.2v58.1h0c10.3,7.6,22.7,12.5,36.1,13.7l0,0v-49.8h0  c-9.5-2.8-16.5-11.6-16.5-22H212.9z M212.9,141.1v44.2h19.6v-44.2H212.9 M195.8,99.4c-20.3,0-36.8,16.5-36.8,36.8h73.7  C232.6,115.9,216.1,99.4,195.8,99.4z M308,239.7L308,239.7c12.2-12.9,19.6-30.3,19.6-49.5H308v45c0,3.6-1.8,4.9-4.2,7.6l0.5,0.5  C305.7,242,306.4,241.3,308,239.7L308,239.7z M183.6,157.9l-0.1,27.5H208l0-28.6c0.1-0.9,0.5-1.8,0.8-2.7c0.3-0.7,0.5-1.4,0.9-2.1  c0.2-0.4,1.1-1.7,0.5-2c-0.2-0.1-0.5-0.2-0.6,0.1c-0.4,1.1-0.9,2-1.5,3c-2.4,3.8-7.5,5.2-12.3,5.2c-4.7,0-9-1.9-12.2-5  c-1.4-1.4-2.2-2-3.6-3.4l-0.5,0.5C181.8,153.1,183.6,154.3,183.6,157.9z M307.1,150.4l-0.5-0.5c-1.4,1.3-2.3,2-3.6,3.4  c-3.1,3.1-7.4,5-12.2,5c-4.8,0-9.9-1.4-12.3-5.2c-0.6-1-1.2-1.9-1.5-3c-0.1-0.3-0.4-0.3-0.6-0.1c-0.6,0.3,0.3,1.6,0.5,2  c0.3,0.7,0.6,1.4,0.9,2.1c0.3,0.8,0.8,1.8,0.8,2.7l0,28.6h24.6l-0.1-27.5C303,154.3,304.8,153.1,307.1,150.4z M303.1,255.3  c0-3.6,1.8-4.4,4.2-7.1l-0.5-0.5c-1.4,1.3-2,1.8-3.6,3.1h0h0c-13.1,10.3-29.6,16.4-47.5,16.4c-0.5,0-1.1,0-1.6,0h0v21.2h49.1  L303.1,255.3z M208,240c0-10.8,0-49.7,0-49.7h-24.6c0,21.6,9.5,41,24.6,54.2h0l0,0l0,0c1.8,1.7,2,1.8,3.7,3.3l0.5-0.5  C209.8,244.6,208,243.5,208,240z"/></g>
</svg>